<svg width="48" height="48" viewBox="0 0 48 48" fill="none" xmlns="http://www.w3.org/2000/svg">
<path d="M24 41.3C35.0457 41.3 44 32.3457 44 21.3C44 10.2543 35.0457 1.3 24 1.3C12.9543 1.3 4 10.2543 4 21.3C4 32.3457 12.9543 41.3 24 41.3Z" fill="#FFE500"/>
<path d="M24 1.3C13 1.3 4 10.3 4 21.3C4 32.3 13 41.3 24 41.3C35 41.3 44 32.3 44 21.3C44 10.3 35 1.3 24 1.3V1.3ZM24 38.3C13.9 38.3 5.8 30.1 5.8 20C5.8 9.9 13.9 1.8 24 1.8C34.1 1.8 42.2 9.9 42.2 20C42.2 30.1 34.1 38.3 24 38.3Z" fill="#EBCB00"/>
<path d="M24 6.8C27.3137 6.8 30 6.12843 30 5.3C30 4.47157 27.3137 3.8 24 3.8C20.6863 3.8 18 4.47157 18 5.3C18 6.12843 20.6863 6.8 24 6.8Z" fill="#FFF48C"/>
<path d="M24 41.3C35.0457 41.3 44 32.3457 44 21.3C44 10.2543 35.0457 1.3 24 1.3C12.9543 1.3 4 10.2543 4 21.3C4 32.3457 12.9543 41.3 24 41.3Z" stroke="#45413C" stroke-miterlimit="10" stroke-linecap="round" stroke-linejoin="round"/>
<path opacity="0.15" d="M23.3 46.7C32.1366 46.7 39.3 46.0284 39.3 45.2C39.3 44.3716 32.1366 43.7 23.3 43.7C14.4634 43.7 7.3 44.3716 7.3 45.2C7.3 46.0284 14.4634 46.7 23.3 46.7Z" fill="#45413C"/>
<path d="M13 15.9C14.1 15.7 15.2 15.4 16.4 14.8C17.5 14.2 18.5 13.5 19.3 12.7" stroke="#45413C" stroke-miterlimit="10" stroke-linecap="round" stroke-linejoin="round"/>
<path d="M34.8 15.9C33.7 15.7 32.6 15.4 31.4 14.8C30.3 14.2 29.3 13.5 28.5 12.7" stroke="#45413C" stroke-miterlimit="10" stroke-linecap="round" stroke-linejoin="round"/>
<path d="M36 27.8C37.3807 27.8 38.5 27.1284 38.5 26.3C38.5 25.4716 37.3807 24.8 36 24.8C34.6193 24.8 33.5 25.4716 33.5 26.3C33.5 27.1284 34.6193 27.8 36 27.8Z" fill="#FFAA54"/>
<path d="M12 27.8C13.3807 27.8 14.5 27.1284 14.5 26.3C14.5 25.4716 13.3807 24.8 12 24.8C10.6193 24.8 9.5 25.4716 9.5 26.3C9.5 27.1284 10.6193 27.8 12 27.8Z" fill="#FFAA54"/>
<path d="M38 20.3C38 21.3 37.2 22.1 36.2 22.1C35.2 22.1 34.4 21.3 34.4 20.3" stroke="#45413C" stroke-miterlimit="10" stroke-linecap="round" stroke-linejoin="round"/>
<path d="M13.5 20.3C13.5 21.3 12.7 22.1 11.7 22.1C10.7 22.1 10 21.2 10 20.3" stroke="#45413C" stroke-miterlimit="10" stroke-linecap="round" stroke-linejoin="round"/>
<path d="M31.8 35.3C32.2 35.3 32.5 35.1 32.7 34.9C32.9 34.6 33 34.3 33 33.9C32.3 29.5 28.6 26.3 24 26.3C19.4 26.3 15.7 29.5 15 33.9C14.9 34.2 15 34.6 15.3 34.9C15.5 35.2 15.9 35.3 16.2 35.3C21.4 33.9 26.6 33.9 31.8 35.3V35.3Z" fill="#FFB0CA" stroke="#45413C" stroke-miterlimit="10" stroke-linecap="round" stroke-linejoin="round"/>
<path d="M24 26.3C21.5 26.3 19.3 27.2 17.7 28.8H30.3C28.7 27.2 26.5 26.3 24 26.3V26.3Z" fill="white" stroke="#45413C" stroke-miterlimit="10" stroke-linecap="round" stroke-linejoin="round"/>
</svg>
