<svg width="48" height="48" viewBox="0 0 48 48" fill="none" xmlns="http://www.w3.org/2000/svg">
<path d="M24 41.3C35.0457 41.3 44 32.3457 44 21.3C44 10.2543 35.0457 1.3 24 1.3C12.9543 1.3 4 10.2543 4 21.3C4 32.3457 12.9543 41.3 24 41.3Z" fill="#FFE500"/>
<path d="M24 1.3C13 1.3 4 10.3 4 21.3C4 32.3 13 41.3 24 41.3C35 41.3 44 32.3 44 21.3C44 10.3 35 1.3 24 1.3V1.3ZM24 38.3C13.9 38.3 5.8 30.1 5.8 20.1C5.8 10 13.9 1.8 24 1.8C34.1 1.8 42.3 10 42.3 20.1C42.3 30.2 34.1 38.3 24 38.3V38.3Z" fill="#EBCB00"/>
<path d="M24 6.8C27.3137 6.8 30 6.12843 30 5.3C30 4.47157 27.3137 3.8 24 3.8C20.6863 3.8 18 4.47157 18 5.3C18 6.12843 20.6863 6.8 24 6.8Z" fill="#FFF48C"/>
<path opacity="0.15" d="M24 46.7C32.8366 46.7 40 46.0284 40 45.2C40 44.3716 32.8366 43.7 24 43.7C15.1634 43.7 8 44.3716 8 45.2C8 46.0284 15.1634 46.7 24 46.7Z" fill="#45413C"/>
<path d="M24 41.3C35.0457 41.3 44 32.3457 44 21.3C44 10.2543 35.0457 1.3 24 1.3C12.9543 1.3 4 10.2543 4 21.3C4 32.3457 12.9543 41.3 24 41.3Z" stroke="#45413C" stroke-miterlimit="10" stroke-linecap="round" stroke-linejoin="round"/>
<path d="M36 27.8C37.3807 27.8 38.5 27.1284 38.5 26.3C38.5 25.4716 37.3807 24.8 36 24.8C34.6193 24.8 33.5 25.4716 33.5 26.3C33.5 27.1284 34.6193 27.8 36 27.8Z" fill="#FFAA54"/>
<path d="M12 27.8C13.3807 27.8 14.5 27.1284 14.5 26.3C14.5 25.4716 13.3807 24.8 12 24.8C10.6193 24.8 9.5 25.4716 9.5 26.3C9.5 27.1284 10.6193 27.8 12 27.8Z" fill="#FFAA54"/>
<path d="M17.9 29.3C17.6 29.3 17.4 29.4 17.2 29.6C17 29.9 17 30.1 17 30.4C17.5 33.8 20.5 36.3 24 36.3C27.5 36.3 30.5 33.8 31 30.4C31 30.1 31 29.9 30.8 29.6C30.6 29.4 30.4 29.3 30.1 29.3H17.9V29.3Z" fill="#FFB0CA" stroke="#45413C" stroke-miterlimit="10" stroke-linecap="round" stroke-linejoin="round"/>
<path d="M29.6 33.7C28.2 32.9 26.2 32.4 24 32.4C21.8 32.4 19.8 32.9 18.4 33.7C19.7 35.4 21.7 36.4 24 36.4C26.3 36.4 28.3 35.3 29.6 33.7Z" fill="#FF87AF" stroke="#45413C" stroke-miterlimit="10" stroke-linecap="round" stroke-linejoin="round"/>
<path d="M36.3 17.8L33.1 19.4C32.4 19.8 32.4 20.8 33.1 21.2L36.3 22.8" stroke="#45413C" stroke-miterlimit="10" stroke-linecap="round" stroke-linejoin="round"/>
<path d="M11.7 17.8L14.9 19.4C15.6 19.8 15.6 20.8 14.9 21.2L11.7 22.8" stroke="#45413C" stroke-miterlimit="10" stroke-linecap="round" stroke-linejoin="round"/>
</svg>
