<svg width="48" height="48" viewBox="0 0 48 48" fill="none" xmlns="http://www.w3.org/2000/svg">
<path d="M24 41.2C35.0457 41.2 44 32.2457 44 21.2C44 10.1543 35.0457 1.2 24 1.2C12.9543 1.2 4 10.1543 4 21.2C4 32.2457 12.9543 41.2 24 41.2Z" fill="#FFE500"/>
<path d="M24 1.2C13 1.2 4 10.2 4 21.2C4 32.2 13 41.2 24 41.2C35 41.2 44 32.2 44 21.2C44 10.2 35 1.2 24 1.2V1.2ZM24 38.2C13.9 38.2 5.8 30 5.8 19.9C5.8 9.8 13.9 1.7 24 1.7C34.1 1.7 42.2 9.9 42.2 19.9C42.3 30 34.1 38.2 24 38.2Z" fill="#EBCB00"/>
<path d="M24 6.7C27.3137 6.7 30 6.02843 30 5.2C30 4.37157 27.3137 3.7 24 3.7C20.6863 3.7 18 4.37157 18 5.2C18 6.02843 20.6863 6.7 24 6.7Z" fill="#FFF48C"/>
<path opacity="0.15" d="M24 46.8C32.8366 46.8 40 46.1284 40 45.3C40 44.4716 32.8366 43.8 24 43.8C15.1634 43.8 8 44.4716 8 45.3C8 46.1284 15.1634 46.8 24 46.8Z" fill="#45413C"/>
<path d="M24 41.2C35.0457 41.2 44 32.2457 44 21.2C44 10.1543 35.0457 1.2 24 1.2C12.9543 1.2 4 10.1543 4 21.2C4 32.2457 12.9543 41.2 24 41.2Z" stroke="#45413C" stroke-miterlimit="10" stroke-linecap="round" stroke-linejoin="round"/>
<path d="M12 27.7C13.3807 27.7 14.5 27.0284 14.5 26.2C14.5 25.3716 13.3807 24.7 12 24.7C10.6193 24.7 9.5 25.3716 9.5 26.2C9.5 27.0284 10.6193 27.7 12 27.7Z" fill="#FFAA54"/>
<path d="M38 20.2C38 21.2 37.2 22 36.2 22C35.2 22 34.4 21.2 34.4 20.2" stroke="#45413C" stroke-miterlimit="10" stroke-linecap="round" stroke-linejoin="round"/>
<path d="M13.5 20.2C13.5 21.2 12.7 22 11.7 22C10.7 22 10 21.1 10 20.2" stroke="#45413C" stroke-miterlimit="10" stroke-linecap="round" stroke-linejoin="round"/>
<path d="M28 25.2H32.5C38.9 25.2 44 30.3 44 36.7C44 38.9 42.2 40.7 40 40.7C37.8 40.7 36 38.9 36 36.7C36 32.7 33.9 28.9 30.5 26.8L28 25.2Z" fill="#00B8F0"/>
<path d="M32.5 25.2H28L30.4 26.7H31C37.4 26.7 42.5 31.8 42.5 38.2C42.5 38.9 42.3 39.6 42 40.2C43.2 39.5 44 38.2 44 36.7C44 30.3 38.9 25.2 32.5 25.2V25.2Z" fill="#4ACFFF"/>
<path d="M28 25.2H32.5C38.9 25.2 44 30.3 44 36.7C44 38.9 42.2 40.7 40 40.7C37.8 40.7 36 38.9 36 36.7C36 32.7 33.9 28.9 30.5 26.8L28 25.2Z" stroke="#45413C" stroke-miterlimit="10" stroke-linejoin="round"/>
<path d="M18.4 35.7C17.8 35.7 17.2 35.5 16.7 35.1C15.7 34.2 15.6 32.6 16.5 31.6C18.4 29.5 21.1 28.3 24 28.3C26.8 28.3 29.6 29.5 31.5 31.6C32.4 32.6 32.3 34.2 31.3 35.1C30.3 36 28.7 35.9 27.8 34.9C26.9 33.8 25.5 33.2 24.1 33.2C22.7 33.2 21.3 33.8 20.4 34.9C19.8 35.4 19.1 35.7 18.4 35.7V35.7Z" fill="#FFB0CA" stroke="#45413C" stroke-miterlimit="10" stroke-linecap="round" stroke-linejoin="round"/>
<path d="M30.6 30.7C28.8 29.1 26.4 28.2 24 28.2C21.6 28.2 19.2 29.1 17.4 30.7H30.6V30.7Z" fill="white" stroke="#45413C" stroke-miterlimit="10" stroke-linecap="round" stroke-linejoin="round"/>
<path d="M31 13.2C32.1 13.4 33.2 13.7 34.4 14.3C35.5 14.9 36.5 15.6 37.3 16.4" stroke="#45413C" stroke-miterlimit="10" stroke-linecap="round" stroke-linejoin="round"/>
<path d="M17 13.2C15.9 13.4 14.8 13.7 13.6 14.3C12.5 14.9 11.5 15.6 10.7 16.4" stroke="#45413C" stroke-miterlimit="10" stroke-linecap="round" stroke-linejoin="round"/>
</svg>
