<svg width="48" height="48" viewBox="0 0 48 48" fill="none" xmlns="http://www.w3.org/2000/svg">
<path d="M24 41.3C35.0457 41.3 44 32.3457 44 21.3C44 10.2543 35.0457 1.3 24 1.3C12.9543 1.3 4 10.2543 4 21.3C4 32.3457 12.9543 41.3 24 41.3Z" fill="url(#paint0_linear_101_423)"/>
<path d="M24 1.3C13 1.3 4 10.3 4 21.3C4 32.3 13 41.3 24 41.3C35 41.3 44 32.3 44 21.3C44 10.3 35 1.3 24 1.3V1.3ZM24 38.3C13.9 38.3 5.7 30.1 5.7 20C5.7 10 13.9 1.8 24 1.8C34.1 1.8 42.2 10 42.2 20C42.2 30.1 34.1 38.3 24 38.3V38.3Z" fill="url(#paint1_linear_101_423)"/>
<path d="M24 6.8C27.3137 6.8 30 6.12843 30 5.3C30 4.47157 27.3137 3.8 24 3.8C20.6863 3.8 18 4.47157 18 5.3C18 6.12843 20.6863 6.8 24 6.8Z" fill="#4ACFFF"/>
<path d="M24 41.3C35.0457 41.3 44 32.3457 44 21.3C44 10.2543 35.0457 1.3 24 1.3C12.9543 1.3 4 10.2543 4 21.3C4 32.3457 12.9543 41.3 24 41.3Z" stroke="#45413C" stroke-miterlimit="10" stroke-linecap="round" stroke-linejoin="round"/>
<path opacity="0.15" d="M24 46.7C32.8366 46.7 40 46.0284 40 45.2C40 44.3716 32.8366 43.7 24 43.7C15.1634 43.7 8 44.3716 8 45.2C8 46.0284 15.1634 46.7 24 46.7Z" fill="#45413C"/>
<path d="M36 27.8C37.3807 27.8 38.5 27.1284 38.5 26.3C38.5 25.4716 37.3807 24.8 36 24.8C34.6193 24.8 33.5 25.4716 33.5 26.3C33.5 27.1284 34.6193 27.8 36 27.8Z" fill="#FFAA54"/>
<path d="M12 27.8C13.3807 27.8 14.5 27.1284 14.5 26.3C14.5 25.4716 13.3807 24.8 12 24.8C10.6193 24.8 9.5 25.4716 9.5 26.3C9.5 27.1284 10.6193 27.8 12 27.8Z" fill="#FFAA54"/>
<path d="M31 12.3C32.1 12.5 33.2 12.8 34.4 13.4C35.5 14 36.5 14.7 37.3 15.5" stroke="#45413C" stroke-miterlimit="10" stroke-linecap="round" stroke-linejoin="round"/>
<path d="M17 12.3C15.9 12.5 14.8 12.8 13.6 13.4C12.5 14 11.5 14.7 10.7 15.5" stroke="#45413C" stroke-miterlimit="10" stroke-linecap="round" stroke-linejoin="round"/>
<path d="M14.5 23.8C16.433 23.8 18 22.233 18 20.3C18 18.367 16.433 16.8 14.5 16.8C12.567 16.8 11 18.367 11 20.3C11 22.233 12.567 23.8 14.5 23.8Z" fill="white" stroke="#45413C" stroke-miterlimit="10" stroke-linecap="round" stroke-linejoin="round"/>
<path d="M33.5 23.8C35.433 23.8 37 22.233 37 20.3C37 18.367 35.433 16.8 33.5 16.8C31.567 16.8 30 18.367 30 20.3C30 22.233 31.567 23.8 33.5 23.8Z" fill="white" stroke="#45413C" stroke-miterlimit="10" stroke-linecap="round" stroke-linejoin="round"/>
<path d="M30.1 35.8C30.4 35.8 30.6 35.7 30.8 35.5C31 35.2 31 35 31 34.7C30.5 31.3 27.5 28.8 24 28.8C20.5 28.8 17.5 31.3 17 34.7C17 35 17 35.2 17.2 35.5C17.4 35.7 17.6 35.8 17.9 35.8H30.1V35.8Z" fill="#FFB0CA" stroke="#45413C" stroke-miterlimit="10" stroke-linecap="round" stroke-linejoin="round"/>
<path d="M18.6 31.3H29.5C28.2 29.8 26.3 28.8 24.1 28.8C21.9 28.8 19.9 29.7 18.6 31.3Z" fill="white" stroke="#45413C" stroke-miterlimit="10" stroke-linecap="round" stroke-linejoin="round"/>
<defs>
<linearGradient id="paint0_linear_101_423" x1="24" y1="41.2815" x2="24" y2="1.2815" gradientUnits="userSpaceOnUse">
<stop stop-color="#FFE500"/>
<stop offset="0.2848" stop-color="#FDE502"/>
<stop offset="0.3874" stop-color="#F6E408"/>
<stop offset="0.4605" stop-color="#EBE213"/>
<stop offset="0.5197" stop-color="#DADF23"/>
<stop offset="0.5703" stop-color="#C4DB38"/>
<stop offset="0.6152" stop-color="#A8D651"/>
<stop offset="0.6558" stop-color="#88D070"/>
<stop offset="0.6931" stop-color="#62C993"/>
<stop offset="0.7278" stop-color="#37C2BC"/>
<stop offset="0.7586" stop-color="#09B9E7"/>
<stop offset="0.7643" stop-color="#00B8F0"/>
</linearGradient>
<linearGradient id="paint1_linear_101_423" x1="24" y1="41.2815" x2="24" y2="1.2815" gradientUnits="userSpaceOnUse">
<stop stop-color="#EBCB00"/>
<stop offset="0.2885" stop-color="#E9CB02"/>
<stop offset="0.3924" stop-color="#E2CB09"/>
<stop offset="0.4665" stop-color="#D7CA14"/>
<stop offset="0.5264" stop-color="#C6C825"/>
<stop offset="0.5777" stop-color="#B0C63B"/>
<stop offset="0.6231" stop-color="#96C457"/>
<stop offset="0.6643" stop-color="#76C277"/>
<stop offset="0.7021" stop-color="#51BF9D"/>
<stop offset="0.7357" stop-color="#29BBC6"/>
<stop offset="0.7646" stop-color="#00B8F0"/>
</linearGradient>
</defs>
</svg>
